<mxfile host="app.diagrams.net" agent="Mozilla/5.0 (Windows NT 10.0; Win64; x64) AppleWebKit/537.36 (KHTML, like Gecko) Chrome/129.0.0.0 Safari/537.36 Edg/129.0.0.0" version="24.7.16">
  <diagram name="Page-1" id="lyMVoKyuxbOgN0nHatGJ">
    <mxGraphModel dx="1483" dy="1805" grid="1" gridSize="10" guides="1" tooltips="1" connect="1" arrows="1" fold="1" page="1" pageScale="1" pageWidth="827" pageHeight="1169" math="0" shadow="0">
      <root>
        <mxCell id="0" />
        <mxCell id="1" parent="0" />
        <mxCell id="PQOzKIRTnrujCPghcL0o-1" value="" style="rounded=0;whiteSpace=wrap;html=1;fillColor=#bac8d3;strokeColor=#23445d;" vertex="1" parent="1">
          <mxGeometry y="-310" width="1160" height="831" as="geometry" />
        </mxCell>
        <mxCell id="PQOzKIRTnrujCPghcL0o-47" value="mumbai" style="sketch=0;outlineConnect=0;html=1;whiteSpace=wrap;fontSize=12;fontStyle=0;shape=mxgraph.aws4.group;grIcon=mxgraph.aws4.group_region;strokeColor=#b46504;fillColor=#fad7ac;verticalAlign=top;align=left;spacingLeft=30;dashed=1;" vertex="1" parent="1">
          <mxGeometry x="55" y="150" width="1040" height="330" as="geometry" />
        </mxCell>
        <mxCell id="PQOzKIRTnrujCPghcL0o-8" value="Target Group" style="verticalAlign=top;align=left;shape=cube;size=10;direction=south;fontStyle=0;html=1;boundedLbl=1;spacingLeft=5;whiteSpace=wrap;fillColor=#cce5ff;strokeColor=#36393d;" vertex="1" parent="1">
          <mxGeometry x="91" y="203" width="420" height="240" as="geometry" />
        </mxCell>
        <mxCell id="PQOzKIRTnrujCPghcL0o-13" value="1b" style="sketch=0;outlineConnect=0;html=1;whiteSpace=wrap;fontSize=12;fontStyle=0;shape=mxgraph.aws4.group;grIcon=mxgraph.aws4.group_availability_zone;strokeColor=#36393d;fillColor=#eeeeee;verticalAlign=top;align=left;spacingLeft=30;dashed=1;" vertex="1" parent="PQOzKIRTnrujCPghcL0o-8">
          <mxGeometry x="236.57" y="46.45" width="101.43" height="170.32" as="geometry" />
        </mxCell>
        <mxCell id="PQOzKIRTnrujCPghcL0o-14" value="1a" style="sketch=0;outlineConnect=0;html=1;whiteSpace=wrap;fontSize=12;fontStyle=0;shape=mxgraph.aws4.group;grIcon=mxgraph.aws4.group_availability_zone;strokeColor=#36393d;fillColor=#eeeeee;verticalAlign=top;align=left;spacingLeft=30;dashed=1;" vertex="1" parent="PQOzKIRTnrujCPghcL0o-8">
          <mxGeometry x="51.85" y="46.45" width="118.15" height="170.32" as="geometry" />
        </mxCell>
        <mxCell id="PQOzKIRTnrujCPghcL0o-11" value="&lt;font style=&quot;font-size: 9px;&quot;&gt;EC2&lt;/font&gt;" style="verticalAlign=top;align=center;shape=cube;size=10;direction=south;html=1;boundedLbl=1;spacingLeft=5;whiteSpace=wrap;fillColor=#ffff88;strokeColor=#36393d;" vertex="1" parent="PQOzKIRTnrujCPghcL0o-8">
          <mxGeometry width="50" height="30" relative="1" as="geometry">
            <mxPoint x="259" y="105" as="offset" />
          </mxGeometry>
        </mxCell>
        <mxCell id="PQOzKIRTnrujCPghcL0o-12" value="&lt;font style=&quot;font-size: 9px;&quot;&gt;EC2&lt;/font&gt;" style="verticalAlign=top;align=center;shape=cube;size=10;direction=south;html=1;boundedLbl=1;spacingLeft=5;whiteSpace=wrap;fillColor=#ffff88;strokeColor=#36393d;" vertex="1" parent="PQOzKIRTnrujCPghcL0o-8">
          <mxGeometry width="50" height="30" relative="1" as="geometry">
            <mxPoint x="256" y="160" as="offset" />
          </mxGeometry>
        </mxCell>
        <mxCell id="PQOzKIRTnrujCPghcL0o-9" value="&lt;font style=&quot;font-size: 9px;&quot;&gt;EC2&lt;/font&gt;" style="verticalAlign=top;align=center;shape=cube;size=10;direction=south;html=1;boundedLbl=1;spacingLeft=5;whiteSpace=wrap;fillColor=#ffff88;strokeColor=#36393d;" vertex="1" parent="PQOzKIRTnrujCPghcL0o-8">
          <mxGeometry width="50" height="30" relative="1" as="geometry">
            <mxPoint x="88" y="104" as="offset" />
          </mxGeometry>
        </mxCell>
        <mxCell id="PQOzKIRTnrujCPghcL0o-10" value="&lt;font style=&quot;font-size: 9px;&quot;&gt;EC2&lt;/font&gt;" style="verticalAlign=top;align=center;shape=cube;size=10;direction=south;html=1;boundedLbl=1;spacingLeft=5;whiteSpace=wrap;fillColor=#ffff88;strokeColor=#36393d;" vertex="1" parent="PQOzKIRTnrujCPghcL0o-8">
          <mxGeometry width="50" height="30" relative="1" as="geometry">
            <mxPoint x="86" y="160" as="offset" />
          </mxGeometry>
        </mxCell>
        <mxCell id="PQOzKIRTnrujCPghcL0o-15" value="Target Group" style="verticalAlign=top;align=left;shape=cube;size=10;direction=south;fontStyle=0;html=1;boundedLbl=1;spacingLeft=5;whiteSpace=wrap;fillColor=#cce5ff;strokeColor=#36393d;" vertex="1" parent="1">
          <mxGeometry x="625" y="200" width="430" height="240" as="geometry" />
        </mxCell>
        <mxCell id="PQOzKIRTnrujCPghcL0o-16" value="1c" style="sketch=0;outlineConnect=0;html=1;whiteSpace=wrap;fontSize=12;fontStyle=0;shape=mxgraph.aws4.group;grIcon=mxgraph.aws4.group_availability_zone;strokeColor=#36393d;fillColor=#eeeeee;verticalAlign=top;align=left;spacingLeft=30;dashed=1;" vertex="1" parent="PQOzKIRTnrujCPghcL0o-15">
          <mxGeometry x="104.15555555555557" y="63.11111111111111" width="172" height="88.88888888888889" as="geometry" />
        </mxCell>
        <mxCell id="PQOzKIRTnrujCPghcL0o-46" value="&lt;font style=&quot;font-size: 9px;&quot;&gt;EC2&lt;/font&gt;" style="verticalAlign=top;align=center;shape=cube;size=10;direction=south;html=1;boundedLbl=1;spacingLeft=5;whiteSpace=wrap;fillColor=#ffff88;strokeColor=#36393d;" vertex="1" parent="PQOzKIRTnrujCPghcL0o-15">
          <mxGeometry width="50" height="30" relative="1" as="geometry">
            <mxPoint x="174" y="105" as="offset" />
          </mxGeometry>
        </mxCell>
        <mxCell id="PQOzKIRTnrujCPghcL0o-25" style="edgeStyle=orthogonalEdgeStyle;rounded=0;orthogonalLoop=1;jettySize=auto;html=1;" edge="1" parent="1" source="PQOzKIRTnrujCPghcL0o-23" target="PQOzKIRTnrujCPghcL0o-15">
          <mxGeometry relative="1" as="geometry" />
        </mxCell>
        <mxCell id="PQOzKIRTnrujCPghcL0o-23" value="" style="outlineConnect=0;dashed=0;verticalLabelPosition=bottom;verticalAlign=top;align=center;html=1;shape=mxgraph.aws3.application_load_balancer;fillColor=#F58536;gradientColor=none;" vertex="1" parent="1">
          <mxGeometry x="496" y="-88" width="100" height="100" as="geometry" />
        </mxCell>
        <mxCell id="PQOzKIRTnrujCPghcL0o-28" style="edgeStyle=orthogonalEdgeStyle;rounded=0;orthogonalLoop=1;jettySize=auto;html=1;" edge="1" parent="1">
          <mxGeometry relative="1" as="geometry">
            <mxPoint x="512" y="-37.933333333333394" as="sourcePoint" />
            <mxPoint x="286" y="200" as="targetPoint" />
            <Array as="points">
              <mxPoint x="286" y="-38" />
              <mxPoint x="286" y="199" />
            </Array>
          </mxGeometry>
        </mxCell>
        <mxCell id="PQOzKIRTnrujCPghcL0o-29" value="&lt;font style=&quot;font-size: 15px;&quot;&gt;/orders&lt;/font&gt;" style="rounded=0;whiteSpace=wrap;html=1;" vertex="1" parent="1">
          <mxGeometry x="237" y="91" width="90" height="20" as="geometry" />
        </mxCell>
        <mxCell id="PQOzKIRTnrujCPghcL0o-31" value="&lt;font style=&quot;font-size: 15px;&quot;&gt;/registration&lt;/font&gt;" style="rounded=0;whiteSpace=wrap;html=1;" vertex="1" parent="1">
          <mxGeometry x="792" y="91" width="90" height="20" as="geometry" />
        </mxCell>
        <mxCell id="PQOzKIRTnrujCPghcL0o-32" value="&lt;div style=&quot;text-align: left;&quot;&gt;&lt;br&gt;&lt;/div&gt;" style="text;html=1;align=center;verticalAlign=middle;whiteSpace=wrap;rounded=0;" vertex="1" parent="1">
          <mxGeometry x="590" y="-70" width="120" height="30" as="geometry" />
        </mxCell>
        <mxCell id="PQOzKIRTnrujCPghcL0o-34" style="edgeStyle=orthogonalEdgeStyle;rounded=0;orthogonalLoop=1;jettySize=auto;html=1;" edge="1" parent="1" source="PQOzKIRTnrujCPghcL0o-33" target="PQOzKIRTnrujCPghcL0o-23">
          <mxGeometry relative="1" as="geometry" />
        </mxCell>
        <mxCell id="PQOzKIRTnrujCPghcL0o-33" value="" style="image;aspect=fixed;perimeter=ellipsePerimeter;html=1;align=center;shadow=0;dashed=0;spacingTop=3;image=img/lib/active_directory/user_accounts.svg;" vertex="1" parent="1">
          <mxGeometry x="330" y="-270" width="50" height="48.5" as="geometry" />
        </mxCell>
        <mxCell id="PQOzKIRTnrujCPghcL0o-35" value="http://www.xyz.com" style="rounded=1;whiteSpace=wrap;html=1;" vertex="1" parent="1">
          <mxGeometry x="489" y="-190" width="120" height="30" as="geometry" />
        </mxCell>
        <mxCell id="PQOzKIRTnrujCPghcL0o-36" value="&lt;div style=&quot;text-align: left;&quot;&gt;&lt;span style=&quot;background-color: initial;&quot;&gt;Load Balancer&lt;/span&gt;&lt;/div&gt;&lt;div&gt;Application Layer&lt;/div&gt;" style="rounded=1;whiteSpace=wrap;html=1;" vertex="1" parent="1">
          <mxGeometry x="610" y="-88" width="120" height="40" as="geometry" />
        </mxCell>
      </root>
    </mxGraphModel>
  </diagram>
</mxfile>
